REM DIRINDEX 1\2,1\4,1\3\5,1\3\6,1\3\7
REM DIRNAME cjc081,folder01,folder02,folder03,folder04,folder05,folder06
TITLE ""
FILE "CD2Track11.mp3" MP3
  TRACK 01 AUDIO
    TITLE "0:"
    INDEX 01 00:00:00
  TRACK 02 AUDIO
    TITLE "5:cjc081_1333"
    INDEX 01 00:00:31
  TRACK 03 AUDIO
    TITLE "0:"
    INDEX 01 00:01:54
  TRACK 04 AUDIO
    TITLE "6:cjc081_1334"
    INDEX 01 00:02:22
  TRACK 05 AUDIO
    TITLE "0:"
    INDEX 01 00:03:29
  TRACK 06 AUDIO
    TITLE "5:cjc081_1335"
    INDEX 01 00:03:72
  TRACK 07 AUDIO
    TITLE "0:"
    INDEX 01 00:05:24
  TRACK 08 AUDIO
    TITLE "6:cjc081_1336"
    INDEX 01 00:05:67
  TRACK 09 AUDIO
    TITLE "0:"
    INDEX 01 00:09:16
  TRACK 10 AUDIO
    TITLE "5:cjc081_1337"
    INDEX 01 00:09:57
  TRACK 11 AUDIO
    TITLE "0:"
    INDEX 01 00:11:07
  TRACK 12 AUDIO
    TITLE "6:cjc081_1338"
    INDEX 01 00:11:50
  TRACK 13 AUDIO
    TITLE "0:"
    INDEX 01 00:12:63
  TRACK 14 AUDIO
    TITLE "5:cjc081_1339"
    INDEX 01 00:13:30
  TRACK 15 AUDIO
    TITLE "0:"
    INDEX 01 00:15:19
  TRACK 16 AUDIO
    TITLE "6:cjc081_1340"
    INDEX 01 00:15:64
  TRACK 17 AUDIO
    TITLE "0:"
    INDEX 01 00:18:17
  TRACK 18 AUDIO
    TITLE "5:cjc081_1341"
    INDEX 01 00:18:60
  TRACK 19 AUDIO
    TITLE "0:"
    INDEX 01 00:20:28
  TRACK 20 AUDIO
    TITLE "6:cjc081_1342"
    INDEX 01 00:20:69
  TRACK 21 AUDIO
    TITLE "0:"
    INDEX 01 00:23:04
  TRACK 22 AUDIO
    TITLE "5:cjc081_1343"
    INDEX 01 00:23:50
  TRACK 23 AUDIO
    TITLE "0:"
    INDEX 01 00:24:65
  TRACK 24 AUDIO
    TITLE "6:cjc081_1344"
    INDEX 01 00:25:35
  TRACK 25 AUDIO
    TITLE "0:"
    INDEX 01 00:27:51
  TRACK 26 AUDIO
    TITLE "5:cjc081_1345"
    INDEX 01 00:28:17
  TRACK 27 AUDIO
    TITLE "0:"
    INDEX 01 00:29:36
  TRACK 28 AUDIO
    TITLE "6:cjc081_1346"
    INDEX 01 00:30:05
  TRACK 29 AUDIO
    TITLE "0:"
    INDEX 01 00:32:13
  TRACK 30 AUDIO
    TITLE "5:cjc081_1347"
    INDEX 01 00:32:54
  TRACK 31 AUDIO
    TITLE "0:"
    INDEX 01 00:33:64
  TRACK 32 AUDIO
    TITLE "6:cjc081_1348"
    INDEX 01 00:34:34
  TRACK 33 AUDIO
    TITLE "0:"
    INDEX 01 00:35:59
  TRACK 34 AUDIO
    TITLE "5:cjc081_1349"
    INDEX 01 00:36:29
  TRACK 35 AUDIO
    TITLE "0:"
    INDEX 01 00:37:67
  TRACK 36 AUDIO
    TITLE "6:cjc081_1350"
    INDEX 01 00:38:37
  TRACK 37 AUDIO
    TITLE "0:"
    INDEX 01 00:39:58
  TRACK 38 AUDIO
    TITLE "5:cjc081_1351"
    INDEX 01 00:40:26
  TRACK 39 AUDIO
    TITLE "0:"
    INDEX 01 00:41:63
  TRACK 40 AUDIO
    TITLE "6:cjc081_1352"
    INDEX 01 00:42:31
  TRACK 41 AUDIO
    TITLE "0:"
    INDEX 01 00:43:58
  TRACK 42 AUDIO
    TITLE "5:cjc081_1353"
    INDEX 01 00:44:26
  TRACK 43 AUDIO
    TITLE "0:"
    INDEX 01 00:45:41
  TRACK 44 AUDIO
    TITLE "6:cjc081_1354"
    INDEX 01 00:46:11
  TRACK 45 AUDIO
    TITLE "0:"
    INDEX 01 00:48:26
  TRACK 46 AUDIO
    TITLE "5:cjc081_1355"
    INDEX 01 00:48:69
  TRACK 47 AUDIO
    TITLE "0:"
    INDEX 01 00:50:11
  TRACK 48 AUDIO
    TITLE "6:cjc081_1356"
    INDEX 01 00:50:50
  TRACK 49 AUDIO
    TITLE "0:"
    INDEX 01 00:51:54
  TRACK 50 AUDIO
    TITLE "5:cjc081_1357"
    INDEX 01 00:52:24
  TRACK 51 AUDIO
    TITLE "0:"
    INDEX 01 00:53:60
  TRACK 52 AUDIO
    TITLE "6:cjc081_1358"
    INDEX 01 00:54:29
  TRACK 53 AUDIO
    TITLE "0:"
    INDEX 01 00:55:38
  TRACK 54 AUDIO
    TITLE "5:cjc081_1359"
    INDEX 01 00:56:06
  TRACK 55 AUDIO
    TITLE "0:"
    INDEX 01 00:57:52
  TRACK 56 AUDIO
    TITLE "6:cjc081_1360"
    INDEX 01 00:58:24
  TRACK 57 AUDIO
    TITLE "0:"
    INDEX 01 01:00:06
  TRACK 58 AUDIO
    TITLE "7:cjc081_1361"
    INDEX 01 01:01:44
  TRACK 59 AUDIO
    TITLE "0:"
    INDEX 01 01:11:60
